<?xml version="1.0" encoding="UTF-8"?>
<!DOCTYPE svg PUBLIC "-//W3C//DTD SVG 1.1//EN" "http://www.w3.org/Graphics/SVG/1.1/DTD/svg11.dtd">
<svg xmlns="http://www.w3.org/2000/svg" version="1.1" width="32px" height="32px" style="shape-rendering:geometricPrecision; text-rendering:geometricPrecision; image-rendering:optimizeQuality; fill-rule:evenodd; clip-rule:evenodd" xmlns:xlink="http://www.w3.org/1999/xlink">
<g><path fill="#fbfbfb" d="M -0.5,-0.5 C 10.1667,-0.5 20.8333,-0.5 31.5,-0.5C 31.5,10.1667 31.5,20.8333 31.5,31.5C 20.8333,31.5 10.1667,31.5 -0.5,31.5C -0.5,20.8333 -0.5,10.1667 -0.5,-0.5 Z"/></g>
<g><path fill="#626262" d="M 1.5,11.5 C 3.04814,11.8212 3.71481,12.8212 3.5,14.5C 4.5,14.5 5.5,14.5 6.5,14.5C 6.28099,13.325 6.61432,12.325 7.5,11.5C 8.83333,14.1667 8.83333,16.8333 7.5,19.5C 6.57131,18.3112 6.23798,16.9778 6.5,15.5C 5.5,15.5 4.5,15.5 3.5,15.5C 3.76202,16.9778 3.42869,18.3112 2.5,19.5C 1.51998,16.9135 1.18665,14.2469 1.5,11.5 Z"/></g>
<g><path fill="#5e5e5e" d="M 24.5,11.5 C 26.604,11.2011 28.604,11.5344 30.5,12.5C 28.8276,12.3874 26.9942,12.7208 25,13.5C 24.1751,15.7008 24.6751,17.5341 26.5,19C 24.0773,19.3483 23.0773,18.1817 23.5,15.5C 23.6233,14.0755 23.9566,12.7421 24.5,11.5 Z"/></g>
<g><path fill="#3a3a3a" d="M 11.5,11.5 C 13.1667,11.5 14.8333,11.5 16.5,11.5C 15.4054,14.6056 15.4054,17.2723 16.5,19.5C 13.5528,17.696 13.2195,15.696 15.5,13.5C 14.675,12.6143 13.675,12.281 12.5,12.5C 12.6633,14.8568 12.4966,17.1902 12,19.5C 11.5026,16.854 11.3359,14.1873 11.5,11.5 Z"/></g>
</svg>
