<svg width="91" height="61" viewBox="0 0 91 61" fill="none" xmlns="http://www.w3.org/2000/svg">
<path d="M34.9431 0.244459C34.9089 0.363139 34.8975 10.9595 34.9089 23.7769L34.9431 47.0889H35.2287H35.5142V23.6073V0.12578L35.2515 0.0749175C35.1145 0.0410091 34.9774 0.12578 34.9431 0.244459Z" fill="black"/>
<path d="M11.2342 12.4684C10.549 12.994 10.0579 14.3503 10.1492 15.4693C10.2977 17.0969 11.1543 18.182 12.2963 18.182C13.0044 18.182 13.4726 17.8259 13.9409 16.8935C14.215 16.3679 14.2721 16.1136 14.2721 15.215C14.2721 14.3503 14.215 14.0452 13.9523 13.4518C13.3698 12.1463 12.2049 11.7224 11.2342 12.4684ZM13.1757 13.4179C13.8723 14.1638 13.9066 15.8932 13.2442 16.8256C12.8673 17.3512 11.9994 17.4869 11.4855 17.08C11.0286 16.7409 10.6175 15.5032 10.7317 14.8251C11.0058 13.1466 12.2392 12.4345 13.1757 13.4179Z" fill="black"/>
<path d="M17.013 13.9434C15.7225 14.3842 15.0144 16.317 15.4826 18.1311C15.8824 19.6909 17.2985 20.4877 18.3035 19.7248C19.1258 19.0975 19.4684 18.2498 19.4684 16.8426C19.4684 14.9946 18.2236 13.5196 17.013 13.9434ZM18.2692 15.1302C19.457 16.2153 18.8288 19.1992 17.4127 19.1992C15.9509 19.1992 15.357 16.2153 16.6018 15.0794C17.0244 14.6894 17.8124 14.7233 18.2692 15.1302Z" fill="black"/>
<path d="M21.8096 16.3848C20.3249 17.3682 20.1764 20.6234 21.5583 21.8271C22.9745 23.0478 24.7218 21.6576 24.7218 19.301C24.7218 18.3515 24.5619 17.7242 24.1736 17.0969C23.5912 16.1814 22.5747 15.8762 21.8096 16.3848ZM23.3627 17.2495C24.7332 18.3176 24.1964 21.4033 22.6318 21.4033C22.1293 21.4033 22.0265 21.3355 21.6268 20.7421C21.2271 20.1487 21.1814 19.9961 21.1814 19.2501C21.1814 18.6397 21.25 18.2667 21.4327 17.9277C21.8895 17.063 22.7232 16.7748 23.3627 17.2495Z" fill="black"/>
<path d="M81.6531 17.7751C78.6266 18.2328 76.3996 20.7421 75.4974 24.6924C74.4011 29.4735 75.7944 34.7801 78.7523 37.0859C80.3854 38.3575 82.2241 38.527 84.5996 37.6454L86.05 37.1028V35.4413C86.05 34.5258 86.0043 33.7798 85.9586 33.7798C85.9015 33.7798 85.7645 34.085 85.6503 34.475C85.2391 35.8313 84.2113 36.7299 82.8522 36.9333C81.3904 37.1707 79.6545 36.1534 78.4668 34.3902C76.4339 31.3723 75.9657 26.9134 77.2904 23.1835C78.4325 19.9961 81.1392 18.2159 83.4804 19.1145C84.3483 19.4535 84.8737 20.0639 85.182 21.0811C85.3077 21.5389 85.4561 21.9119 85.5132 21.9119C85.6617 21.9119 85.6046 18.6906 85.4561 18.6228C83.8116 17.9446 82.4868 17.6564 81.6531 17.7751Z" fill="black"/>
<path d="M42.4236 18.3515C42.4236 18.4363 42.4921 18.5211 42.5835 18.5211C42.6748 18.5211 42.8347 18.6906 42.9261 18.8941C43.086 19.2331 43.1088 20.386 43.1088 28.0154C43.1088 35.6448 43.086 36.7977 42.9261 37.1368C42.8347 37.3402 42.6748 37.5097 42.5835 37.5097C42.4921 37.5097 42.4236 37.5776 42.4236 37.6793C42.4236 37.781 42.9832 37.8488 43.8626 37.8488H45.3016L44.9475 37.3572C44.7191 37.035 44.5935 36.6959 44.5821 36.3738C44.5821 36.0178 44.5821 28.9987 44.5935 28.1341C44.5935 28.0663 46.0096 28.0154 47.7341 28.0154H50.8748V32.3896C50.8748 36.0686 50.8519 36.8146 50.692 37.1368C50.6007 37.3402 50.4408 37.5097 50.3494 37.5097C50.2581 37.5097 50.1895 37.5776 50.1895 37.6793C50.1895 37.781 50.7263 37.8488 51.56 37.8488C52.3138 37.8488 52.9305 37.8149 52.9305 37.7641C52.9305 37.7302 52.8048 37.5097 52.6449 37.2724L52.3594 36.8485V28.0154V19.1823L52.6449 18.7584C52.8048 18.5211 52.9305 18.3007 52.9305 18.2668C52.9305 18.2159 52.3138 18.182 51.56 18.182C50.7263 18.182 50.1895 18.2498 50.1895 18.3515C50.1895 18.4363 50.2581 18.5211 50.3494 18.5211C50.4408 18.5211 50.6007 18.6906 50.692 18.8941C50.8405 19.2162 50.8748 19.9113 50.8748 23.0478V26.8286H47.7341C45.3016 26.8286 44.5935 26.7778 44.5821 26.6082C44.5821 26.4048 44.5821 20.3521 44.5935 19.5722C44.5935 19.3349 44.7534 18.9449 44.9475 18.6737L45.3016 18.182H43.8626C42.9832 18.182 42.4236 18.2498 42.4236 18.3515Z" fill="black"/>
<path d="M55.8998 18.3176C55.8998 18.3854 56.014 18.5211 56.1625 18.6058C56.6764 18.9449 56.7107 19.5214 56.6764 28.3545C56.6421 35.8991 56.6307 36.6281 56.4366 37.052C56.3338 37.3063 56.1625 37.5097 56.0711 37.5097C55.9798 37.5097 55.8998 37.5776 55.8998 37.6793C55.8998 37.781 56.448 37.8488 57.3274 37.8488C58.2068 37.8488 58.7549 37.781 58.7549 37.6793C58.7549 37.5776 58.675 37.5097 58.5836 37.5097C58.4923 37.5097 58.3438 37.2893 58.241 37.0011C58.104 36.5942 58.0697 35.7296 58.0697 32.1692V27.8459H58.3438C58.4923 27.8459 58.7093 27.8967 58.812 27.9476C58.9148 28.0154 59.8513 29.9482 60.8792 32.2709C63.2775 37.6284 63.5173 37.9506 65.0362 37.8149L65.6644 37.7641L65.1504 37.3402C64.705 36.9672 64.3853 36.3569 62.6151 32.4235C61.4959 29.9651 60.5822 27.8967 60.5822 27.8459C60.5822 27.778 60.8792 27.6085 61.2446 27.4559C62.7521 26.8117 63.5972 25.1332 63.6087 22.7596C63.6087 21.149 63.2432 20.0639 62.4323 19.2501C61.553 18.3685 60.8449 18.182 58.2182 18.182C56.9391 18.182 55.8998 18.2328 55.8998 18.3176ZM60.1939 19.5553C61.4959 19.9283 62.1811 21.1151 62.1811 22.9461C62.1811 24.2855 61.907 25.218 61.336 25.93C60.765 26.6082 60.2282 26.8286 59.0519 26.8286H58.0697V23.0139V19.1992L58.8463 19.284C59.2689 19.3349 59.8742 19.4535 60.1939 19.5553Z" fill="black"/>
<path d="M11.1314 18.8262C9.82945 19.4705 9.14422 20.3182 8.6303 21.9119C8.3562 22.7596 8.33336 23.0648 8.2991 25.4045C8.27626 26.9303 8.31052 28.2358 8.37904 28.6597C8.52751 29.4396 8.95007 29.9821 9.47541 30.0838L9.81803 30.1347L9.87513 34.6275C9.92081 38.5948 9.95508 39.1204 10.115 39.1713C10.2292 39.2052 10.332 39.0695 10.3776 38.8322C10.4119 38.6118 10.4462 35.187 10.4462 31.2197C10.4462 24.9128 10.4233 23.9634 10.2748 23.7769C10.1606 23.6412 10.0579 23.6073 9.98934 23.709C9.93223 23.7938 9.86371 25.0484 9.85229 26.4895C9.81803 28.9648 9.80661 29.1174 9.58962 29.1683C9.46399 29.1852 9.25842 29.1005 9.1328 28.9648C8.91581 28.7444 8.90439 28.524 8.91581 25.8622C8.91581 22.5901 8.99575 22.2001 9.82945 20.9625C10.5375 19.8944 11.1885 19.5044 12.2163 19.5044C13.1985 19.5044 13.8381 19.8604 14.5575 20.8268C15.3798 21.9289 15.5169 22.5901 15.5625 25.7266C15.6082 28.1849 15.5854 28.4732 15.3912 28.8123C15.277 29.0157 15.0829 29.2022 14.9573 29.2361C14.7403 29.287 14.7289 29.1852 14.6946 26.6421C14.6717 24.455 14.6375 23.9464 14.489 23.7599C14.055 23.2174 14.0208 23.7599 13.9979 31.4741C13.9979 37.781 14.0094 38.8661 14.1578 39.0356C14.2949 39.2052 14.3634 39.2052 14.5004 39.0356C14.6489 38.8661 14.6717 38.1371 14.6717 34.441V30.0499H15.0144C15.2314 30.0499 15.494 29.8634 15.7224 29.5582L16.0993 29.0666L16.1336 26.2522C16.1678 24.1668 16.1336 23.2174 16.008 22.607C15.8481 21.7763 15.8481 21.7763 16.1222 21.5898C16.282 21.488 16.7046 21.3524 17.0586 21.3016C18.4291 21.0811 19.9023 22.2679 20.4505 23.9973C20.7018 24.8111 20.7246 25.0823 20.7246 27.6255C20.7246 30.1686 20.7018 30.4229 20.4962 30.7281C20.3706 30.9146 20.165 31.0672 20.0394 31.0672C19.8338 31.0672 19.811 30.9315 19.7881 28.3036C19.7539 25.6927 19.7425 25.5571 19.5255 25.5571C19.2971 25.5571 19.2971 25.6757 19.2971 32.3387C19.2971 39.0017 19.2971 39.1204 19.5255 39.1204C19.7425 39.1204 19.7539 38.9848 19.7881 35.5431L19.811 31.9488L20.245 31.8471C20.4962 31.7962 20.7931 31.5758 20.9645 31.3045C21.2385 30.8807 21.2385 30.8468 21.2385 27.4051V23.9464L21.5697 23.7769C21.7525 23.6921 22.2664 23.6073 22.7118 23.6073C23.6825 23.6073 24.4363 24.0651 25.0987 25.0654C25.8867 26.2352 25.921 26.4217 25.9552 29.6769C25.9895 32.2879 25.9781 32.6609 25.7953 32.9491C25.6925 33.1186 25.4756 33.2712 25.3385 33.2712H25.0644L25.0416 30.5077C25.0073 27.8967 24.9959 27.7611 24.7789 27.7611C24.5505 27.7611 24.5505 27.8798 24.5505 33.4407C24.5505 39.0017 24.5505 39.1204 24.7789 39.1204C24.9959 39.1204 25.0073 38.9848 25.0644 36.662L25.1215 34.2206L25.4641 34.1189C26.492 33.7968 26.5719 33.4407 26.5262 29.6091C26.4806 26.0826 26.4235 25.7605 25.4413 24.3363C24.6647 23.2004 23.8424 22.7087 22.6661 22.7087C22.1179 22.7087 21.6497 22.8105 21.3642 22.98L20.9302 23.2682L20.4048 22.4036C20.1193 21.9119 19.594 21.3185 19.1943 21.0133C18.5547 20.5386 18.4063 20.4878 17.4698 20.4878C16.8302 20.5047 16.2706 20.6064 15.9737 20.759L15.5054 21.0303L15.06 20.3352C14.1007 18.8601 12.3876 18.1989 11.1314 18.8262Z" fill="black"/>
<path d="M12.1592 34.2037C12.1592 38.4931 12.1821 39.0526 12.342 39.1543C12.4448 39.2052 12.5704 39.1543 12.6275 39.0187C12.6846 38.883 12.7188 36.679 12.696 34.1189L12.6732 29.4565L12.4219 29.4057L12.1592 29.3548V34.2037Z" fill="black"/>
<path d="M67.7086 30.4568C67.6744 30.5924 67.663 30.9146 67.6858 31.1858L67.7201 31.6606L70.0042 31.7114L72.2997 31.7453L72.2769 31.2876C72.2654 31.0163 72.2426 30.6772 72.2426 30.5077C72.2312 30.2364 72.0484 30.2195 70.0042 30.2195C68.1769 30.2195 67.7543 30.2703 67.7086 30.4568Z" fill="black"/>
<path d="M17.3784 31.1689C17.3327 31.2367 17.2985 33.0339 17.2985 35.1531C17.2985 38.5948 17.3213 39.0187 17.4926 39.1034C17.5954 39.1713 17.721 39.1543 17.7781 39.0695C17.8352 38.9848 17.8581 37.1707 17.8466 35.0344C17.8124 31.6945 17.7895 31.1519 17.6411 31.1011C17.5383 31.0841 17.4241 31.1011 17.3784 31.1689Z" fill="black"/>
<path d="M22.609 33.6442C22.5748 33.7798 22.5634 35.0514 22.5748 36.4925C22.609 38.9848 22.6205 39.1204 22.8375 39.1204C23.0544 39.1204 23.0659 39.0017 23.0659 36.323C23.0659 33.7968 23.043 33.5255 22.8603 33.4747C22.7575 33.4407 22.6433 33.5255 22.609 33.6442Z" fill="black"/>
<path d="M23.0658 52.0734C21.8438 52.5312 21.0329 54.0909 21.0444 55.9898C21.0444 57.2614 21.3413 58.2447 21.9466 59.0416C22.746 60.0927 23.7967 60.347 24.836 59.7536C25.3271 59.4654 25.3956 59.2959 25.3042 58.6007C25.3042 58.5499 25.1329 58.7025 24.9502 58.9398C24.185 59.8723 23.1686 59.6689 22.312 58.3803C21.3413 56.9562 21.2614 54.9556 22.1179 53.5145C22.609 52.6837 23.0087 52.4294 23.8081 52.4294C24.402 52.4294 24.5505 52.4972 24.7903 52.8533C25.1558 53.3958 25.1786 53.3789 25.1786 52.7855C25.1786 52.3447 25.1215 52.2768 24.6761 52.1073C24.1165 51.9038 23.5911 51.8869 23.0658 52.0734Z" fill="black"/>
<path d="M30.4892 52.1411C29.8953 52.3616 28.9017 53.8366 28.7304 54.7351C28.4221 56.3627 28.6619 57.7699 29.4156 58.9059C30.4092 60.3809 31.9738 60.4657 33.0702 59.0754C33.7098 58.2616 33.9724 57.363 33.9724 55.9897C33.9724 54.6334 33.7212 53.7518 33.0816 52.9041C32.385 51.9716 31.5399 51.7173 30.4892 52.1411ZM31.9967 52.6159C33.0245 53.1923 33.6869 55.2438 33.4014 56.9731C33.0702 59.0754 31.6541 60.1435 30.4435 59.228C29.4156 58.4312 28.9017 56.261 29.3243 54.5147C29.4842 53.8874 30.1351 52.8024 30.4777 52.5989C30.8204 52.3955 31.6198 52.3955 31.9967 52.6159Z" fill="black"/>
<path d="M46.3637 52.2938C46.0096 52.599 45.8726 52.8702 45.747 53.4467C45.5985 54.1248 45.6099 54.2435 45.8041 54.7861C45.9754 55.2608 46.2266 55.549 46.9461 56.0746C48.0197 56.8545 48.3166 57.2105 48.3851 57.77C48.4651 58.3295 48.2138 59.1263 47.8598 59.4824C47.4486 59.8723 46.5121 59.7367 46.1467 59.2281C45.884 58.8551 45.884 58.8551 45.8155 59.2111C45.7355 59.6519 45.9868 59.8554 46.7748 59.991C48.111 60.2284 48.9333 59.3976 48.9333 57.8209C48.9333 57.0579 48.8876 56.9053 48.5564 56.4306C48.3394 56.1424 47.8369 55.7185 47.4372 55.4981C46.6378 55.0404 46.1924 54.4978 46.1924 53.9553C46.1924 53.2941 46.5236 52.6159 46.9119 52.4633C47.3915 52.2768 48.1453 52.4803 48.328 52.8702C48.4651 53.1415 48.4765 53.1415 48.4765 52.7346C48.4765 52.1582 48.408 52.0903 47.54 51.9886C46.9233 51.9208 46.752 51.9547 46.3637 52.2938Z" fill="black"/>
<path d="M87.9115 52.1582C87.2377 52.4803 86.7809 53.0059 86.4269 53.9214C85.9929 54.9895 85.97 56.8714 86.3698 57.9904C86.6667 58.8212 87.3748 59.635 88.0372 59.9062C88.494 60.0927 90.0358 60.0249 90.2756 59.8045C90.3441 59.7367 90.3898 58.9907 90.3898 58.0074C90.3898 57.0749 90.4469 56.1594 90.504 55.9729C90.6182 55.6677 90.5839 55.6507 90.0814 55.6507C89.6703 55.6507 89.5789 55.7016 89.6817 55.8542C89.7731 55.9898 89.8188 56.651 89.8188 57.7191V59.3637L89.3962 59.4824C88.4597 59.7367 87.3748 58.889 86.8837 57.5157C86.3698 56.0746 86.6324 53.9723 87.4433 53.0567C88.2085 52.1921 89.419 52.1412 90.0015 52.955L90.2756 53.328V52.8194C90.2756 52.3277 90.2413 52.2768 89.7046 52.1073C88.9622 51.8699 88.5168 51.8869 87.9115 52.1582Z" fill="black"/>
<path d="M0.601662 52.2938C0.795811 52.582 0.795811 59.3976 0.601662 59.6858C0.498878 59.8384 0.590242 59.8893 1.02422 59.8893C1.4582 59.8893 1.54957 59.8384 1.44678 59.6858C1.35542 59.5502 1.30973 58.8551 1.30973 57.6513V55.8203H2.56599H3.82225V57.6513C3.82225 58.8551 3.77657 59.5502 3.6852 59.6858C3.58242 59.8384 3.67378 59.8893 4.10776 59.8893C4.54174 59.8893 4.63311 59.8384 4.53032 59.6858C4.33617 59.3976 4.33617 52.582 4.53032 52.2938C4.63311 52.1412 4.54174 52.0904 4.10776 52.0904C3.67378 52.0904 3.58242 52.1412 3.6852 52.2938C3.77657 52.4294 3.82225 53.0567 3.82225 53.9892V55.4812H2.55457H1.28689L1.33258 53.7858L1.36684 52.0904H0.921437C0.567401 52.0904 0.498878 52.1412 0.601662 52.2938Z" fill="black"/>
<path d="M8.50467 52.4125C8.67598 52.9042 8.65314 59.4315 8.48183 59.6858C8.37904 59.8384 8.47041 59.8893 8.90439 59.8893C9.33837 59.8893 9.42973 59.8384 9.32695 59.6858C9.23558 59.5502 9.1899 58.8551 9.1899 57.6513C9.1899 55.3795 9.247 55.3795 10.3434 57.787C11.1542 59.5841 11.3712 59.8893 11.8395 59.8893C12.0679 59.8723 12.0793 59.8554 11.9194 59.6689C11.6796 59.3976 10.2177 56.2441 10.2177 56.0068C10.2177 55.905 10.2977 55.8203 10.3891 55.8203C10.4804 55.8203 10.7202 55.5999 10.9144 55.3456C11.1771 54.9895 11.2799 54.6843 11.3255 54.1249C11.4283 52.6837 10.8116 52.0904 9.21274 52.0904C8.42473 52.0904 8.39046 52.1073 8.50467 52.4125ZM10.0921 52.599C10.5718 52.8024 10.7774 53.2093 10.7774 53.9553C10.7774 54.9217 10.3434 55.4812 9.60104 55.4812H9.1899V53.9553C9.1899 52.2429 9.21274 52.226 10.0921 52.599Z" fill="black"/>
<path d="M37.8326 52.2938C38.0267 52.582 38.0267 59.3976 37.8326 59.6858C37.7298 59.8384 37.7983 59.8893 38.1409 59.8893C38.4835 59.8893 38.552 59.8384 38.4493 59.6858C38.3579 59.5502 38.3122 58.5838 38.3122 56.4306C38.3122 54.3792 38.3465 53.4297 38.4264 53.5484C38.4949 53.6501 39.1231 55.0912 39.8426 56.7697C40.779 58.9568 41.2016 59.8215 41.3843 59.8554C41.6242 59.9062 41.6242 59.8893 41.6242 56.3798C41.6242 53.4467 41.6584 52.7855 41.8069 52.4633C41.9782 52.0904 41.9668 52.0904 41.5671 52.0904C41.2016 52.0904 41.1673 52.1243 41.2815 52.4125C41.4072 52.7855 41.4414 58.5329 41.3158 58.5329C41.2587 58.516 40.8133 57.5496 40.3222 56.3628C38.4493 51.9378 38.5292 52.0904 38.0952 52.0904C37.7869 52.0904 37.7298 52.1412 37.8326 52.2938Z" fill="black"/>
<path d="M52.7934 52.2938C52.8848 52.4294 52.9305 53.3619 52.9305 55.3456C52.9305 58.3634 53.0104 58.9907 53.4787 59.6011C53.8099 60.0419 54.9177 60.1775 55.4544 59.8384C56.1397 59.4146 56.2424 58.8551 56.2424 55.566C56.2424 53.9553 56.2881 52.599 56.3566 52.4125C56.4708 52.1243 56.4366 52.0904 56.0711 52.0904C55.6828 52.0904 55.6714 52.1073 55.8427 52.3786C56.0026 52.6159 56.0254 53.0398 55.9912 55.6677L55.9569 58.7025L55.6372 59.1602C55.3745 59.5671 55.226 59.635 54.7349 59.618C54.2324 59.618 54.1068 59.5332 53.8213 59.0755L53.5015 58.5329V55.5151C53.5015 53.3958 53.5472 52.4294 53.6386 52.2938C53.7413 52.1412 53.65 52.0904 53.216 52.0904C52.782 52.0904 52.6907 52.1412 52.7934 52.2938Z" fill="black"/>
<path d="M60.4794 52.3786C60.7193 52.8024 60.7535 58.9737 60.5137 59.4993L60.3538 59.8893H61.9527H63.5516V59.262C63.5516 58.6347 63.5516 58.6347 63.3688 59.0077C63.209 59.3467 63.1062 59.3806 62.1697 59.3806H61.1533V56.0576C61.1533 54.1079 61.1989 52.6159 61.2675 52.4125C61.3817 52.1243 61.3474 52.0904 60.8563 52.0904C60.3767 52.0904 60.3424 52.1243 60.4794 52.3786Z" fill="black"/>
<path d="M66.0641 52.599C66.0641 53.1754 66.1212 53.2263 66.3724 52.8533C66.4981 52.6668 66.7151 52.599 67.0805 52.6329L67.6059 52.6837L67.6401 55.9559C67.6515 58.0074 67.6287 59.3467 67.5488 59.5502C67.4345 59.8554 67.4688 59.8893 67.8914 59.8893C68.3139 59.8893 68.3482 59.8554 68.234 59.5502C68.154 59.3467 68.1312 58.0074 68.1426 55.9559L68.1769 52.6837L68.7022 52.6329C69.0677 52.599 69.2733 52.6668 69.376 52.8533C69.593 53.2432 69.7415 53.1585 69.6958 52.6329L69.6616 52.1751L67.8685 52.1243L66.0641 52.0734V52.599Z" fill="black"/>
<path d="M73.3504 52.2938C73.4531 52.4464 73.4874 53.4975 73.4874 55.9898C73.4874 58.4821 73.4531 59.5332 73.3504 59.6858C73.2476 59.8384 73.3389 59.8893 73.7729 59.8893C74.2069 59.8893 74.2983 59.8384 74.1955 59.6858C74.0927 59.5332 74.0584 58.4821 74.0584 55.9898C74.0584 53.4975 74.0927 52.4464 74.1955 52.2938C74.2983 52.1412 74.2069 52.0904 73.7729 52.0904C73.3389 52.0904 73.2476 52.1412 73.3504 52.2938Z" fill="black"/>
<path d="M78.2612 52.2768C78.4553 52.582 78.4553 59.3976 78.2612 59.6858C78.1584 59.8384 78.2155 59.8893 78.5581 59.8893C78.9464 59.8893 78.9693 59.8723 78.8094 59.618C78.6609 59.3976 78.6266 58.8551 78.6266 56.3967C78.6266 54.7691 78.6609 53.4467 78.718 53.4467C78.7637 53.4467 79.4147 54.9047 80.1684 56.668C81.2762 59.2789 81.5846 59.8893 81.8015 59.8893H82.0528V56.1933C82.0528 53.5484 82.0871 52.4464 82.1898 52.2938C82.2926 52.1412 82.2355 52.0904 81.8929 52.0904C81.4932 52.0904 81.4704 52.1243 81.6074 52.3786C81.7901 52.7007 81.8815 58.5838 81.6988 58.499C81.6417 58.4651 80.9907 57.041 80.2484 55.3116C78.9578 52.3108 78.8893 52.1751 78.5124 52.1243C78.1927 52.0734 78.1356 52.1073 78.2612 52.2768Z" fill="black"/>
</svg>
